<mxfile host="app.diagrams.net" agent="Mozilla/5.0 (Windows NT 10.0; Win64; x64) AppleWebKit/537.36 (KHTML, like Gecko) Chrome/129.0.0.0 Safari/537.36" version="24.7.17">
  <diagram id="prtHgNgQTEPvFCAcTncT" name="Page-1">
    <mxGraphModel dx="1434" dy="746" grid="1" gridSize="10" guides="1" tooltips="1" connect="1" arrows="1" fold="1" page="1" pageScale="1" pageWidth="827" pageHeight="1169" math="0" shadow="0">
      <root>
        <mxCell id="0" />
        <mxCell id="1" parent="0" />
        <mxCell id="hbgkxxp7qQodJCzmnGvr-2" value="&lt;font style=&quot;font-size: 18px;&quot;&gt;打印方案流程图&lt;/font&gt;" style="swimlane;whiteSpace=wrap;html=1;startSize=60;" vertex="1" parent="1">
          <mxGeometry x="60" y="90" width="640" height="460" as="geometry">
            <mxRectangle x="60" y="90" width="140" height="30" as="alternateBounds" />
          </mxGeometry>
        </mxCell>
        <mxCell id="hbgkxxp7qQodJCzmnGvr-5" value="&lt;font style=&quot;font-size: 14px;&quot;&gt;接口&lt;/font&gt;" style="swimlane;whiteSpace=wrap;html=1;startSize=40;" vertex="1" parent="hbgkxxp7qQodJCzmnGvr-2">
          <mxGeometry x="160" y="60" width="160" height="400" as="geometry" />
        </mxCell>
        <mxCell id="hbgkxxp7qQodJCzmnGvr-6" value="&lt;font style=&quot;font-size: 14px;&quot;&gt;服务端&lt;/font&gt;" style="swimlane;whiteSpace=wrap;html=1;startSize=40;" vertex="1" parent="hbgkxxp7qQodJCzmnGvr-2">
          <mxGeometry x="320" y="60" width="160" height="400" as="geometry" />
        </mxCell>
        <mxCell id="hbgkxxp7qQodJCzmnGvr-10" value="票据预览" style="rounded=1;whiteSpace=wrap;html=1;fillColor=#dae8fc;strokeColor=#6c8ebf;" vertex="1" parent="hbgkxxp7qQodJCzmnGvr-6">
          <mxGeometry x="20" y="60" width="120" height="40" as="geometry" />
        </mxCell>
        <mxCell id="hbgkxxp7qQodJCzmnGvr-11" value="票据预览" style="rounded=1;whiteSpace=wrap;html=1;fillColor=#dae8fc;strokeColor=#6c8ebf;" vertex="1" parent="hbgkxxp7qQodJCzmnGvr-6">
          <mxGeometry x="20" y="140" width="120" height="40" as="geometry" />
        </mxCell>
        <mxCell id="hbgkxxp7qQodJCzmnGvr-12" value="票据预览" style="rounded=1;whiteSpace=wrap;html=1;fillColor=#dae8fc;strokeColor=#6c8ebf;" vertex="1" parent="hbgkxxp7qQodJCzmnGvr-6">
          <mxGeometry x="20" y="230" width="120" height="40" as="geometry" />
        </mxCell>
        <mxCell id="hbgkxxp7qQodJCzmnGvr-7" value="&lt;font style=&quot;font-size: 14px;&quot;&gt;打印库&lt;/font&gt;" style="swimlane;whiteSpace=wrap;html=1;startSize=40;" vertex="1" parent="hbgkxxp7qQodJCzmnGvr-2">
          <mxGeometry x="480" y="60" width="160" height="400" as="geometry" />
        </mxCell>
        <mxCell id="hbgkxxp7qQodJCzmnGvr-3" value="&lt;font style=&quot;font-size: 14px;&quot;&gt;业务端&lt;/font&gt;" style="swimlane;whiteSpace=wrap;html=1;startSize=40;" vertex="1" parent="hbgkxxp7qQodJCzmnGvr-2">
          <mxGeometry y="60" width="160" height="400" as="geometry" />
        </mxCell>
        <mxCell id="hbgkxxp7qQodJCzmnGvr-8" value="票据预览" style="rounded=1;whiteSpace=wrap;html=1;fillColor=#dae8fc;strokeColor=#6c8ebf;" vertex="1" parent="hbgkxxp7qQodJCzmnGvr-3">
          <mxGeometry x="20" y="60" width="120" height="40" as="geometry" />
        </mxCell>
        <mxCell id="hbgkxxp7qQodJCzmnGvr-9" value="用户打印" style="rounded=1;whiteSpace=wrap;html=1;fillColor=#dae8fc;strokeColor=#6c8ebf;" vertex="1" parent="hbgkxxp7qQodJCzmnGvr-3">
          <mxGeometry x="20" y="140" width="120" height="40" as="geometry" />
        </mxCell>
      </root>
    </mxGraphModel>
  </diagram>
</mxfile>
